<svg xmlns="http://www.w3.org/2000/svg" version="1.1" xmlns:xlink="http://www.w3.org/1999/xlink" xmlns:svgjs="http://svgjs.dev/svgjs" width="1440" height="560" preserveAspectRatio="none" viewBox="0 0 1440 560"><g mask="url(&quot;#SvgjsMask1025&quot;)" fill="none"><rect width="1440" height="560" x="0" y="0" fill="rgba(29, 32, 39, 1)"></rect><path d="M0 0L607.91 0L0 172.66z" fill="rgba(255, 255, 255, .1)"></path><path d="M0 172.66L607.91 0L974.8699999999999 0L0 325.81z" fill="rgba(255, 255, 255, .075)"></path><path d="M0 325.81L974.8699999999999 0L1194.33 0L0 427z" fill="rgba(255, 255, 255, .05)"></path><path d="M0 427L1194.33 0L1240.9099999999999 0L0 501.17z" fill="rgba(255, 255, 255, .025)"></path><path d="M1440 560L1274.6100000000001 560L1440 472.94z" fill="rgba(0, 0, 0, .1)"></path><path d="M1440 472.94L1274.6100000000001 560L941.0800000000002 560L1440 291.77z" fill="rgba(0, 0, 0, .075)"></path><path d="M1440 291.77L941.08 560L423.19000000000005 560L1440 200.23999999999998z" fill="rgba(0, 0, 0, .05)"></path><path d="M1440 200.24L423.19000000000005 560L412.09000000000003 560L1440 127.71000000000001z" fill="rgba(0, 0, 0, .025)"></path></g><defs><mask id="SvgjsMask1025"><rect width="1440" height="560" fill="#ffffff"></rect></mask></defs></svg>